<svg width="512" height="512" version="1.1" xmlns="http://www.w3.org/2000/svg" desc="Created with imagetracer.js version 1.2.6" ><path fill="rgb(0,0,0)" stroke="rgb(0,0,0)" stroke-width="1" opacity="0" d="M 0 0 L 0.5 0 L 511.5 0 Q 512.3 -0.3 512 0.5 L 512 43.5 Q 511.5 44.5 511 43.5 Q 510.1 36.4 504.5 34 Q 500.5 31 492.5 32 Q 491.1 34 487.5 34 L 432.5 89 Q 430.5 65 414.5 55 Q 407.8 50.2 398.5 48 L 341.5 48 L 341 48 Q 340.8 38 333.5 34 Q 329.9 34 328.5 32 L 51.5 32 Q 26 36.5 13 53.5 Q 3 64.5 0.5 83 L 0 82.5 L 0 0.5 L 0 0 Z " /><path fill="rgb(0,0,0)" stroke="rgb(0,0,0)" stroke-width="1" opacity="0" d="M 511.5 52 L 512 52.5 L 512 511.5 L 512 512 L 511.5 512 L 0.5 512 Q -0.3 512.3 0 511.5 L 0 429.5 Q 0.5 428.5 1 429.5 L 1 434.5 Q 3.5 444 8 451.5 Q 13.3 460.7 21.5 467 Q 28 472.5 36.5 476 L 38.5 476 L 39.5 477 Q 43.8 476.7 45.5 479 L 50.5 479 L 51.5 480 L 396.5 480 Q 422 475.5 435 458.5 Q 440.5 452 444 443.5 Q 443.7 439.2 446 437.5 L 446 434.5 L 447 433.5 L 447 429.5 L 448 428.5 L 448 236.5 Q 446.2 229.3 440.5 226 Q 437.1 223.4 432 224 L 432 223.5 L 432 134.5 L 510 56.5 Q 509.8 53.3 511.5 52 Z " /><path fill="rgb(0,0,0)" stroke="rgb(0,0,0)" stroke-width="1" opacity="0.8901960784313725" d="M 51.5 32 Q 56.5 30.5 58 32.5 Q 56.5 34.5 51.5 33 Q 50.5 32.5 51.5 32 Z " /><path fill="rgb(0,0,0)" stroke="rgb(0,0,0)" stroke-width="1" opacity="0.8901960784313725" d="M 326.5 32 Q 328.5 31.5 329 32.5 Q 328.5 33.5 326.5 33 Q 325.5 32.5 326.5 32 Z " /><path fill="rgb(0,0,0)" stroke="rgb(0,0,0)" stroke-width="1" opacity="0.8901960784313725" d="M 492.5 32 L 499.5 32 L 500 32.5 L 499.5 33 L 492.5 33 Q 491.5 32.5 492.5 32 Z " /><path fill="rgb(0,0,0)" stroke="rgb(0,0,0)" stroke-width="1" opacity="0.8901960784313725" d="M 45.5 33 Q 47.5 32.5 48 33.5 Q 47.5 34.5 45.5 34 Q 44.5 33.5 45.5 33 Z " /><path fill="rgb(0,0,0)" stroke="rgb(0,0,0)" stroke-width="1" opacity="0.8901960784313725" d="M 333.5 34 Q 336 35 334.5 36 Q 332 35 333.5 34 Z " /><path fill="rgb(0,0,0)" stroke="rgb(0,0,0)" stroke-width="1" opacity="0.8901960784313725" d="M 487.5 34 L 488 34.5 L 432.5 90 L 432 89.5 L 487.5 34 Z " /><path fill="rgb(0,0,0)" stroke="rgb(0,0,0)" stroke-width="1" opacity="0.8901960784313725" d="M 504.5 34 L 510 39.5 L 509.5 40 L 504 34.5 L 504.5 34 Z " /><path fill="rgb(0,0,0)" stroke="rgb(0,0,0)" stroke-width="1" opacity="0.8901960784313725" d="M 28.5 40 Q 30 41 27.5 42 Q 26 41 28.5 40 Z " /><path fill="rgb(0,0,0)" stroke="rgb(0,0,0)" stroke-width="1" opacity="0.8901960784313725" d="M 25.5 42 Q 27 43 24.5 44 Q 23 43 25.5 42 Z " /><path fill="rgb(0,0,0)" stroke="rgb(0,0,0)" stroke-width="1" opacity="0.8901960784313725" d="M 511.5 44 Q 512.5 44.5 512 46.5 Q 511.5 47.5 511 46.5 Q 510.5 44.5 511.5 44 Z " /><path fill="rgb(0,0,0)" stroke="rgb(0,0,0)" stroke-width="1" opacity="0.8901960784313725" d="M 21.5 45 L 22 45.5 L 13.5 54 L 13 53.5 L 21.5 45 Z " /><path fill="rgb(0,0,0)" stroke="rgb(0,0,0)" stroke-width="1" opacity="0.8901960784313725" d="M 511.5 49 Q 512.5 49.5 512 51.5 Q 511.5 52.5 511 51.5 Q 510.5 49.5 511.5 49 Z " /><path fill="rgb(0,0,0)" stroke="rgb(0,0,0)" stroke-width="1" opacity="0.8901960784313725" d="M 11.5 56 Q 13 57 10.5 58 Q 9 57 11.5 56 Z " /><path fill="rgb(0,0,0)" stroke="rgb(0,0,0)" stroke-width="1" opacity="0.8901960784313725" d="M 509.5 56 L 510 56.5 L 432.5 134 L 432 133.5 L 509.5 56 Z " /><path fill="rgb(0,0,0)" stroke="rgb(0,0,0)" stroke-width="1" opacity="0.8901960784313725" d="M 9.5 59 Q 11 60 8.5 61 Q 7 60 9.5 59 Z " /><path fill="rgb(0,0,0)" stroke="rgb(0,0,0)" stroke-width="1" opacity="0.8901960784313725" d="M 1.5 77 Q 2.5 77.5 2 79.5 Q 1.5 80.5 1 79.5 Q 0.5 77.5 1.5 77 Z " /><path fill="rgb(0,0,0)" stroke="rgb(0,0,0)" stroke-width="1" opacity="0.8901960784313725" d="M 0.5 83 Q 2 84 1 87.5 Q 0.5 88.5 0 87.5 Q -1 84 0.5 83 Z " /><path fill="rgb(0,0,0)" stroke="rgb(0,0,0)" stroke-width="1" opacity="0.8901960784313725" d="M 433.5 224 Q 435.5 223.5 436 224.5 Q 435.5 225.5 433.5 225 Q 432.5 224.5 433.5 224 Z " /><path fill="rgb(0,0,0)" stroke="rgb(0,0,0)" stroke-width="1" opacity="0.8901960784313725" d="M 440.5 226 Q 445.6 228.4 447 234.5 Q 446.5 235.5 446 234.5 Q 444.8 228.8 440 226.5 L 440.5 226 Z " /><path fill="rgb(0,0,0)" stroke="rgb(0,0,0)" stroke-width="1" opacity="0.8901960784313725" d="M 447.5 236 Q 448.5 236.5 448 238.5 Q 447.5 239.5 447 238.5 Q 446.5 236.5 447.5 236 Z " /><path fill="rgb(0,0,0)" stroke="rgb(0,0,0)" stroke-width="1" opacity="0.8901960784313725" d="M 447.5 423 Q 449.2 424.2 448 428.5 Q 447.5 429.5 447 428.5 Q 445.7 424.2 447.5 423 Z " /><path fill="rgb(0,0,0)" stroke="rgb(0,0,0)" stroke-width="1" opacity="0.8901960784313725" d="M 0.5 424 Q 2 425 1 428.5 Q 0.5 429.5 0 428.5 Q -1 425 0.5 424 Z " /><path fill="rgb(0,0,0)" stroke="rgb(0,0,0)" stroke-width="1" opacity="0.8901960784313725" d="M 1.5 432 Q 2.5 432.5 2 434.5 Q 1.5 435.5 1 434.5 Q 0.5 432.5 1.5 432 Z " /><path fill="rgb(0,0,0)" stroke="rgb(0,0,0)" stroke-width="1" opacity="0.8901960784313725" d="M 8.5 451 Q 11 452 9.5 453 Q 7 452 8.5 451 Z " /><path fill="rgb(0,0,0)" stroke="rgb(0,0,0)" stroke-width="1" opacity="0.8901960784313725" d="M 439.5 451 Q 441 452 438.5 453 Q 437 452 439.5 451 Z " /><path fill="rgb(0,0,0)" stroke="rgb(0,0,0)" stroke-width="1" opacity="0.8901960784313725" d="M 10.5 454 Q 13 455 11.5 456 Q 9 455 10.5 454 Z " /><path fill="rgb(0,0,0)" stroke="rgb(0,0,0)" stroke-width="1" opacity="0.8901960784313725" d="M 437.5 454 Q 439 455 436.5 456 Q 435 455 437.5 454 Z " /><path fill="rgb(0,0,0)" stroke="rgb(0,0,0)" stroke-width="1" opacity="0.8901960784313725" d="M 12.5 457 L 22 466.5 L 21.5 467 L 12 457.5 L 12.5 457 Z " /><path fill="rgb(0,0,0)" stroke="rgb(0,0,0)" stroke-width="1" opacity="0.8901960784313725" d="M 434.5 458 L 435 458.5 L 426.5 467 L 426 466.5 L 434.5 458 Z " /><path fill="rgb(0,0,0)" stroke="rgb(0,0,0)" stroke-width="1" opacity="0.8901960784313725" d="M 24.5 468 Q 27 469 25.5 470 Q 23 469 24.5 468 Z " /><path fill="rgb(0,0,0)" stroke="rgb(0,0,0)" stroke-width="1" opacity="0.8901960784313725" d="M 423.5 468 Q 425 469 422.5 470 Q 421 469 423.5 468 Z " /><path fill="rgb(0,0,0)" stroke="rgb(0,0,0)" stroke-width="1" opacity="0.8901960784313725" d="M 27.5 470 Q 30 471 28.5 472 Q 26 471 27.5 470 Z " /><path fill="rgb(0,0,0)" stroke="rgb(0,0,0)" stroke-width="1" opacity="0.8901960784313725" d="M 420.5 470 Q 422 471 419.5 472 Q 418 471 420.5 470 Z " /><path fill="rgb(0,0,0)" stroke="rgb(0,0,0)" stroke-width="1" opacity="0.8901960784313725" d="M 45.5 478 Q 47.5 477.5 48 478.5 Q 47.5 479.5 45.5 479 Q 44.5 478.5 45.5 478 Z " /><path fill="rgb(0,0,0)" stroke="rgb(0,0,0)" stroke-width="1" opacity="0.8901960784313725" d="M 400.5 478 Q 402.5 477.5 403 478.5 Q 402.5 479.5 400.5 479 Q 399.5 478.5 400.5 478 Z " /><path fill="rgb(0,0,0)" stroke="rgb(0,0,0)" stroke-width="1" opacity="0.8901960784313725" d="M 51.5 479 Q 55.7 477.8 57 479.5 Q 55.7 481.2 51.5 480 Q 50.5 479.5 51.5 479 Z " /><path fill="rgb(0,0,0)" stroke="rgb(0,0,0)" stroke-width="1" opacity="0.8901960784313725" d="M 391.5 479 Q 395.8 477.8 397 479.5 Q 395.7 481.2 391.5 480 Q 390.5 479.5 391.5 479 Z " /><path fill="rgb(0,0,0)" stroke="rgb(0,0,0)" stroke-width="1" opacity="1" d="M 58.5 32 L 325.5 32 L 326.5 33 Q 330.7 32.3 332.5 34 Q 335.8 35.8 338 38.5 Q 341.9 42.6 341 51.5 Q 339.2 58.7 333.5 62 Q 332 63.5 328.5 63 L 327.5 64 L 53.5 64 Q 42.6 66.6 37 74.5 Q 33.2 78.7 32 85.5 L 32 426.5 Q 34.6 437.4 42.5 443 Q 46.7 446.8 53.5 448 L 394.5 448 Q 405.4 445.4 411 437.5 Q 414.8 433.3 416 426.5 L 416 237.5 Q 417.6 230.6 422.5 227 Q 424.2 224.7 428.5 225 L 429.5 224 L 432.5 224 L 433.5 225 Q 437.7 224.3 439.5 226 L 445 231.5 Q 447.5 233.5 447 238.5 L 448 239.5 L 448 422.5 L 447 423.5 L 447 431.5 L 446 432.5 L 446 435.5 Q 444.3 436.2 445 439.5 Q 441.5 444 440 450.5 Q 433.9 460.9 424.5 468 Q 417.1 473.6 407.5 477 L 404.5 477 L 403.5 478 Q 400.3 477.3 399.5 479 L 391.5 479 L 390.5 480 L 57.5 480 L 56.5 479 L 48.5 479 L 47.5 478 L 44.5 478 Q 43.8 476.3 40.5 477 L 39.5 476 L 37.5 476 Q 34.7 472.8 29.5 472 Q 19.1 465.9 12 456.5 L 12 455.5 Q 6.8 450.2 4 442.5 Q 2.6 440.4 3 436.5 L 2 435.5 L 2 432.5 L 1 431.5 L 1 424.5 L 0 423.5 L 0 88.5 L 1 87.5 L 1 80.5 L 2 79.5 L 2 76.5 Q 3.7 75.8 3 72.5 L 4 71.5 L 4 69.5 Q 5.1 65.1 8 62.5 L 8 61.5 Q 14.1 51.1 23.5 44 Q 30.9 38.4 40.5 35 L 43.5 35 L 44.5 34 Q 47.8 34.8 48.5 33 L 57.5 33 L 58.5 32 Z " /><path fill="rgb(0,0,0)" stroke="rgb(0,0,0)" stroke-width="1" opacity="1" d="M 490.5 33 L 501.5 33 Q 507.1 35.4 510 40.5 Q 509.7 42.2 511 42.5 Q 510.3 46.7 512 48.5 L 511 49.5 Q 511.7 53.7 510 55.5 Q 391 176.5 270.5 296 Q 266.2 299.7 256.5 298 Q 255.2 296.2 252.5 296 L 152 195.5 Q 148.3 191.2 150 181.5 Q 151.7 176.7 155.5 174 Q 159.7 169.7 169.5 171 Q 173.3 172.2 175.5 175 L 176.5 175 L 261.5 260 Q 374 144.5 490.5 33 Z " /><path fill="rgb(29,133,216)" stroke="rgb(29,133,216)" stroke-width="1" opacity="0.9647058823529412" d="M 335.5 60 Q 337 61 334.5 62 Q 333 61 335.5 60 Z " /><path fill="rgb(29,133,216)" stroke="rgb(29,133,216)" stroke-width="1" opacity="0.9647058823529412" d="M 40.5 71 Q 42 72 39.5 73 Q 38 72 40.5 71 Z " /><path fill="rgb(29,133,216)" stroke="rgb(29,133,216)" stroke-width="1" opacity="0.9647058823529412" d="M 431.5 89 L 432 89.5 L 261.5 260 L 261 259.5 L 431.5 89 Z " /><path fill="rgb(29,133,216)" stroke="rgb(29,133,216)" stroke-width="1" opacity="0.9647058823529412" d="M 431.5 135 L 432 135.5 L 271.5 296 L 271 295.5 L 431.5 135 Z " /><path fill="rgb(29,133,216)" stroke="rgb(29,133,216)" stroke-width="1" opacity="0.9647058823529412" d="M 154.5 174 Q 156.5 175.5 152.5 177 L 152 176.5 L 154.5 174 Z " /><path fill="rgb(29,133,216)" stroke="rgb(29,133,216)" stroke-width="1" opacity="0.9647058823529412" d="M 421.5 227 Q 423.5 228.5 419.5 230 Q 417.5 228.5 421.5 227 Z " /><path fill="rgb(29,133,216)" stroke="rgb(29,133,216)" stroke-width="1" opacity="0.9647058823529412" d="M 415.5 422 Q 416.5 422.5 416 424.5 Q 415.5 425.5 415 424.5 Q 414.5 422.5 415.5 422 Z " /><path fill="rgb(29,133,216)" stroke="rgb(29,133,216)" stroke-width="1" opacity="0.9647058823529412" d="M 39.5 439 Q 42 440 40.5 441 Q 38 440 39.5 439 Z " /><path fill="rgb(29,133,216)" stroke="rgb(29,133,216)" stroke-width="1" opacity="0.9647058823529412" d="M 408.5 439 Q 410 440 407.5 441 Q 406 440 408.5 439 Z " /><path fill="rgb(33,150,243)" stroke="rgb(33,150,243)" stroke-width="1" opacity="0.996078431372549" d="M 389.5 48 L 398.5 48 L 399.5 49 L 401.5 49 Q 403.2 51.3 407.5 51 Q 418.4 56.1 425 65.5 Q 429.8 72.2 432 81.5 L 432 88.5 Q 431.5 89.5 431 88.5 L 431 82.5 L 430 81.5 Q 430.4 77.6 429 75.5 Q 426.1 67.4 420 62.5 L 420 61 L 418.5 61 Q 413.2 54.3 404.5 51 Q 402.4 49.6 398.5 50 L 397.5 49 L 389.5 49 Q 388.5 48.5 389.5 48 Z " /><path fill="rgb(33,150,243)" stroke="rgb(33,150,243)" stroke-width="1" opacity="0.996078431372549" d="M 431.5 136 L 432 136.5 L 432 223.5 Q 431.5 224.5 431 223.5 L 431 136.5 L 431.5 136 Z " /><path fill="rgb(33,150,243)" stroke="rgb(33,150,243)" stroke-width="1" opacity="1" d="M 342 48 L 342.5 48 L 388.5 48 L 389.5 49 L 397.5 49 Q 405 50.5 410.5 54 Q 415.2 56.7 418.5 61 L 420 61 L 420 62.5 Q 426.1 67.4 429 75.5 Q 430.4 77.6 430 81.5 L 431 82.5 L 431 89.5 L 261.5 259 L 260.5 259 L 173.5 172 Q 172 170.5 168.5 171 L 167.5 170 L 163.5 170 Q 155.9 171.4 152 176.5 L 152 177.5 Q 149.8 179.3 149 182.5 L 149 190.5 Q 151.1 192 151 195.5 L 252.5 297 Q 256.9 300.1 265.5 299 Q 267.5 296.5 271.5 296 L 430.5 137 L 431 137.5 L 431 223.5 L 431 224 Q 422.6 223.8 419 229.5 L 419 230.5 Q 416.5 232 416 235.5 L 416 421.5 L 415 422.5 L 415 428.5 Q 412.6 429.6 413 433.5 Q 409.6 439.1 404.5 443 L 403.5 443 L 401.5 445 Q 397.6 444.6 396.5 447 Q 391.8 445.8 390.5 448 L 57.5 448 L 56.5 447 Q 49.8 447.7 46.5 445 Q 40.8 441.7 37 436.5 L 37 435.5 Q 34.9 434.1 34 431.5 Q 32.4 428.6 33 423.5 L 32 422.5 L 32 89.5 L 33 88.5 Q 32.3 81.8 35 78.5 Q 38.4 72.8 43.5 69 L 44.5 69 Q 45.9 66.9 48.5 66 Q 51.4 64.4 56.5 65 L 57.5 64 L 330.5 64 Q 336 62 339 57.5 Q 342.4 53.6 342 48 Z " /><path fill="rgb(18,82,133)" stroke="rgb(18,82,133)" stroke-width="1" opacity="1" d="M 337.5 58 Q 339 59 336.5 60 Q 335 59 337.5 58 Z " /><path fill="rgb(18,82,133)" stroke="rgb(18,82,133)" stroke-width="1" opacity="1" d="M 42.5 69 Q 44 70 41.5 71 Q 40 70 42.5 69 Z " /><path fill="rgb(18,82,133)" stroke="rgb(18,82,133)" stroke-width="1" opacity="1" d="M 38.5 73 Q 40 74 37.5 75 Q 36 74 38.5 73 Z " /><path fill="rgb(18,82,133)" stroke="rgb(18,82,133)" stroke-width="1" opacity="1" d="M 157.5 172 Q 159 173 156.5 174 Q 155 173 157.5 172 Z " /><path fill="rgb(18,82,133)" stroke="rgb(18,82,133)" stroke-width="1" opacity="1" d="M 174.5 173 Q 177 174 175.5 175 Q 173 174 174.5 173 Z " /><path fill="rgb(18,82,133)" stroke="rgb(18,82,133)" stroke-width="1" opacity="1" d="M 149.5 183 Q 151.5 184.5 150 189.5 Q 149.5 190.5 149 189.5 Q 147.5 184.5 149.5 183 Z " /><path fill="rgb(18,82,133)" stroke="rgb(18,82,133)" stroke-width="1" opacity="1" d="M 152.5 196 L 252 295.5 L 251.5 296 L 152 196.5 L 152.5 196 Z " /><path fill="rgb(18,82,133)" stroke="rgb(18,82,133)" stroke-width="1" opacity="1" d="M 258.5 298 Q 263.5 296.5 265 298.5 Q 263.5 300.5 258.5 299 Q 257.5 298.5 258.5 298 Z " /><path fill="rgb(18,82,133)" stroke="rgb(18,82,133)" stroke-width="1" opacity="1" d="M 37.5 437 Q 40 438 38.5 439 Q 36 438 37.5 437 Z " /><path fill="rgb(18,82,133)" stroke="rgb(18,82,133)" stroke-width="1" opacity="1" d="M 410.5 437 Q 412 438 409.5 439 Q 408 438 410.5 437 Z " /><path fill="rgb(18,82,133)" stroke="rgb(18,82,133)" stroke-width="1" opacity="1" d="M 41.5 441 Q 44 442 42.5 443 Q 40 442 41.5 441 Z " /><path fill="rgb(18,82,133)" stroke="rgb(18,82,133)" stroke-width="1" opacity="1" d="M 406.5 441 Q 408 442 405.5 443 Q 404 442 406.5 441 Z " /></svg>